<svg width="72" height="48" viewBox="0 0 72 48" fill="none" xmlns="http://www.w3.org/2000/svg">
<path d="M58.9656 1.12109H58.9366C52.3006 1.13845 46.9316 6.519 46.9316 13.155C46.9316 19.791 52.3006 25.1716 58.9366 25.1889H58.9656C65.6131 25.1889 70.9995 19.8026 70.9995 13.155C70.9995 6.50743 65.6131 1.12109 58.9656 1.12109ZM59.4458 8.32409C60.7244 8.28937 61.9625 8.12159 63.1601 7.83232C63.5188 9.24977 63.7444 10.8871 63.7791 12.6806H59.4458V8.32409ZM59.4458 7.3579V2.16249C60.7417 2.52119 62.0608 4.25107 62.8939 6.90663C61.7831 7.17277 60.6318 7.32319 59.4458 7.3579ZM58.4854 2.15092V7.36369C57.2878 7.32898 56.1249 7.17277 55.0083 6.90085C55.8529 4.22793 57.1778 2.48648 58.4854 2.15092ZM58.4854 8.32409V12.6748H54.1231C54.1578 10.8813 54.3834 9.24399 54.7421 7.82653C55.9455 8.11581 57.201 8.28937 58.4854 8.32409ZM53.1511 12.6748H47.9094C48.0135 10.1986 48.9392 7.93067 50.4145 6.13715C51.4849 6.72728 52.6246 7.21326 53.8164 7.57197C53.423 9.10514 53.1916 10.835 53.1511 12.6748ZM53.1511 13.6352C53.1858 15.4692 53.4172 17.2049 53.8106 18.7381C52.6188 19.1025 51.4849 19.5827 50.4087 20.1729C48.9334 18.3794 48.0135 16.1114 47.9036 13.6352H53.1511ZM54.1231 13.6352H58.4854V17.9801C57.201 18.0149 55.9455 18.1884 54.7421 18.4835C54.3834 17.066 54.1578 15.4287 54.1231 13.6352ZM58.4854 18.9463V24.1649C57.1778 23.8235 55.8529 22.0879 55.0083 19.415C56.1249 19.1373 57.2878 18.981 58.4854 18.9463ZM59.4458 24.1475V18.9405C60.6318 18.9753 61.7831 19.1315 62.8997 19.3976C62.0608 22.059 60.7475 23.7888 59.4458 24.1475ZM59.4458 17.9801V13.6352H63.7791C63.7444 15.4229 63.5188 17.0602 63.1601 18.4777C61.9625 18.1884 60.7244 18.0149 59.4458 17.9801ZM64.7453 13.6352H70.0217C69.9176 16.1114 68.9919 18.3736 67.5166 20.1729C66.4347 19.577 65.2892 19.091 64.0858 18.7265C64.4792 17.1933 64.7106 15.4692 64.7453 13.6352ZM64.7453 12.6748C64.7106 10.8408 64.4792 9.11092 64.0915 7.57775C65.2949 7.21327 66.4405 6.72728 67.5166 6.13715C68.9919 7.93067 69.9176 10.1986 70.0217 12.6806H64.7453V12.6748ZM66.857 5.39661C65.8966 5.90573 64.8899 6.32808 63.8312 6.64628C63.27 4.83541 62.4774 3.3601 61.5459 2.38813C63.594 2.8799 65.4222 3.94444 66.857 5.39661ZM56.3505 2.3997C55.419 3.36588 54.6322 4.84119 54.0768 6.6405C53.0296 6.32229 52.0287 5.90573 51.0799 5.39661C52.4973 3.95022 54.314 2.89147 56.3505 2.3997ZM51.0741 20.9076C52.0229 20.3985 53.0296 19.9819 54.071 19.6637C54.6322 21.4688 55.419 22.9384 56.3505 23.9103C54.314 23.4186 52.4973 22.3598 51.0741 20.9076ZM61.5459 23.9219C62.4832 22.9499 63.27 21.4746 63.837 19.658C64.8957 19.9762 65.9024 20.3985 66.8628 20.9076C65.428 22.3656 63.594 23.4301 61.5459 23.9219Z" fill="black" stroke="black" stroke-width="0.5"/>
<path d="M1.90234 25.1882V1.36102H19.7727V5.36831H6.88439V11.289H17.029V15.1158H6.88439V21.1809H20.2781V25.1882H1.90234Z" fill="black"/>
<path d="M44.8282 18.6177C44.3709 20.158 43.6489 21.4456 42.6621 22.4805C41.6753 23.5155 40.508 24.2856 39.1602 24.7911C37.8124 25.2965 36.3322 25.5492 34.7197 25.5492C32.361 25.5492 30.3153 25.0558 28.5824 24.069C26.8736 23.0822 25.5498 21.6743 24.6112 19.8451C23.6966 18.016 23.2393 15.8258 23.2393 13.2746C23.2393 10.7234 23.6966 8.53323 24.6112 6.70408C25.5498 4.87492 26.8736 3.46695 28.5824 2.48017C30.3153 1.49339 32.337 1 34.6475 1C36.2841 1 37.7643 1.22864 39.088 1.68593C40.4117 2.11915 41.5309 2.79305 42.4455 3.70763C43.3841 4.62221 44.07 5.77747 44.5033 7.1734L39.9905 9.08679C39.5814 7.64272 38.9556 6.61984 38.1133 6.01814C37.2709 5.39238 36.1878 5.0795 34.8641 5.0795C33.5644 5.0795 32.4212 5.39238 31.4344 6.01814C30.4717 6.64391 29.7256 7.57052 29.1961 8.79798C28.6666 10.0014 28.4019 11.4936 28.4019 13.2746C28.4019 15.0315 28.6426 16.5238 29.1239 17.7512C29.6293 18.9787 30.3634 19.9053 31.3261 20.5311C32.2888 21.1568 33.4682 21.4697 34.8641 21.4697C36.1638 21.4697 37.2829 21.1207 38.2216 20.4227C39.1843 19.7248 39.8582 18.6658 40.2433 17.2458L44.8282 18.6177Z" fill="black"/>
<path d="M6.92928 31.5664C8.31053 31.5664 9.52296 31.8041 10.5666 32.2796C11.6102 32.7551 12.5003 33.4606 13.237 34.3961L11.4644 36.4437C10.8352 35.6461 10.1445 35.0633 9.39251 34.6952C8.65584 34.3118 7.7964 34.1201 6.81418 34.1201C6.16959 34.1201 5.63244 34.2044 5.20271 34.3731C4.78834 34.5419 4.48139 34.7642 4.28188 35.0403C4.09771 35.3164 4.00563 35.6231 4.00563 35.9606C4.00563 36.3747 4.16678 36.7274 4.48907 37.0188C4.81136 37.2949 5.36386 37.525 6.14657 37.709L8.97814 38.3532C10.4822 38.6906 11.5565 39.1967 12.2011 39.8716C12.861 40.5311 13.191 41.39 13.191 42.4483C13.191 43.4452 12.9301 44.3041 12.4082 45.0249C11.8864 45.7304 11.1574 46.2749 10.2213 46.6584C9.28508 47.0265 8.21077 47.2105 6.99834 47.2105C5.93938 47.2105 4.96483 47.0878 4.07469 46.8424C3.1999 46.5817 2.41719 46.2289 1.72656 45.7841C1.03594 45.3393 0.460417 44.8255 0 44.2427L1.79563 42.1032C2.14861 42.594 2.58601 43.0311 3.10782 43.4145C3.62962 43.7979 4.22049 44.1047 4.88042 44.3347C5.5557 44.5495 6.26167 44.6568 6.99834 44.6568C7.62758 44.6568 8.15706 44.5878 8.58678 44.4498C9.03185 44.2964 9.36182 44.0894 9.57668 43.8286C9.80689 43.5525 9.92199 43.2228 9.92199 42.8394C9.92199 42.4406 9.78387 42.1032 9.50762 41.8271C9.24671 41.5357 8.7556 41.3133 8.03428 41.1599L4.94949 40.4697C4.05935 40.255 3.29198 39.9789 2.6474 39.6415C2.01816 39.2888 1.53472 38.844 1.19708 38.3072C0.874793 37.755 0.713647 37.1032 0.713647 36.3517C0.713647 35.4468 0.959202 34.6339 1.45031 33.913C1.94143 33.1922 2.6474 32.6247 3.56823 32.2106C4.50442 31.7811 5.62476 31.5664 6.92928 31.5664Z" fill="black"/>
<path d="M27.7862 31.7965V34.3501H22.6986V46.9804H19.5217V34.3501H14.4111V31.7965H27.7862Z" fill="black"/>
<path d="M42.3134 31.7965L36.9265 41.298V46.9804H33.7497V41.298L28.3628 31.7965H31.7468L34.1871 36.3517L35.3381 38.7213L36.5122 36.3517L38.9524 31.7965H42.3134Z" fill="black"/>
<path d="M47.43 44.4268H55.4412V46.9804H44.2531V31.7965H47.43V44.4268Z" fill="black"/>
<path d="M58.0791 46.9804V31.7965H69.4744V34.3501H61.256V38.1231H67.7249V40.5618H61.256V44.4268H69.7967V46.9804H58.0791Z" fill="black"/>
</svg>
